<?xml version="1.0" standalone="no"?>
<!DOCTYPE svg PUBLIC "-//W3C//DTD SVG 20010904//EN"
 "http://www.w3.org/TR/2001/REC-SVG-20010904/DTD/svg10.dtd">
<svg version="1.0" xmlns="http://www.w3.org/2000/svg"
 width="1707.000000pt" height="1707.000000pt" viewBox="0 0 1707.000000 1707.000000"
 preserveAspectRatio="xMidYMid meet">
<metadata>
Created by potrace 1.11, written by Peter Selinger 2001-2013
</metadata>
<g transform="translate(0.000000,1707.000000) scale(0.100000,-0.100000)"
fill="#000000" stroke="none">
<path d="M8320 16658 c-123 -22 -248 -117 -340 -258 -68 -104 -151 -250 -143
-250 3 0 0 -6 -6 -14 -6 -7 -59 -108 -119 -223 -59 -115 -114 -220 -123 -233
l-15 -23 -70 29 c-55 22 -87 29 -156 31 -174 5 -237 -51 -379 -337 -115 -229
-113 -332 8 -462 25 -26 70 -62 99 -79 30 -17 54 -36 54 -42 0 -11 -126 -264
-368 -737 -74 -146 -139 -272 -143 -280 -36 -70 -68 -144 -64 -151 10 -15 366
-202 1190 -624 105 -54 299 -153 433 -222 134 -69 246 -123 248 -120 3 3 38
70 78 149 41 78 105 204 143 278 39 74 116 225 173 335 57 110 123 240 149
289 25 48 51 90 58 93 6 3 49 -12 95 -33 140 -64 1418 -708 1843 -929 66 -34
242 -124 390 -200 149 -76 315 -161 370 -190 55 -29 204 -105 330 -170 127
-65 293 -150 370 -190 77 -40 244 -125 370 -190 230 -117 441 -226 780 -400
99 -51 279 -143 400 -205 121 -62 292 -149 380 -195 88 -45 268 -138 400 -205
132 -67 285 -146 340 -175 55 -29 192 -99 305 -156 113 -57 226 -115 253 -131
26 -15 47 -26 47 -24 0 2 42 -18 93 -46 50 -27 238 -121 416 -210 310 -154
327 -161 385 -162 72 0 99 5 158 32 76 34 126 106 256 362 51 100 53 109 54
186 1 141 -59 232 -203 308 -41 21 -105 55 -144 76 -118 63 -271 143 -480 250
-110 56 -272 140 -360 185 -88 45 -259 133 -380 195 -121 62 -287 148 -370
190 -82 43 -267 137 -410 210 -248 126 -414 211 -770 395 -88 45 -259 133
-380 195 -121 62 -296 152 -390 200 -93 48 -273 140 -400 205 -126 65 -302
155 -390 200 -208 107 -496 255 -770 395 -213 109 -408 209 -775 398 -223 114
-547 280 -815 417 -308 157 -543 280 -553 290 -2 2 36 79 84 172 218 422 293
582 319 685 42 160 -11 373 -114 459 -36 31 -83 58 -261 151 -52 28 -140 74
-195 103 -454 239 -716 368 -796 394 -47 15 -133 19 -189 9z"/>
<path d="M5765 7689 c-3 -3 -4 -88 -4 -188 1 -100 -2 -185 -5 -188 -3 -3 -156
-5 -340 -5 l-336 0 0 -54 0 -54 -1602 0 c-3029 -1 -3473 -4 -3470 -20 2 -8 9
-28 16 -45 8 -16 33 -75 56 -130 157 -370 421 -707 760 -972 227 -176 523
-350 805 -472 55 -24 118 -51 140 -61 193 -85 826 -286 1060 -335 11 -3 48
-12 83 -20 112 -27 365 -85 402 -92 14 -2 45 -9 70 -14 25 -6 54 -13 65 -15
11 -2 83 -18 160 -34 77 -17 151 -33 165 -36 26 -4 166 -34 228 -48 46 -10
230 -49 252 -52 14 -3 33 -7 42 -10 9 -3 25 -7 35 -9 10 -2 63 -13 118 -25 55
-12 111 -24 125 -26 14 -3 95 -21 180 -41 85 -19 162 -36 170 -38 134 -27 513
-144 680 -210 152 -60 449 -208 458 -227 2 -5 8 -8 13 -8 5 0 33 -16 62 -36
249 -173 424 -399 549 -709 23 -56 65 -186 102 -315 27 -93 71 -325 82 -425 3
-27 9 -78 14 -112 33 -243 -63 -534 -245 -742 -46 -54 -146 -150 -185 -180
-19 -14 -41 -31 -48 -38 -21 -20 -203 -138 -267 -173 -169 -94 -385 -187 -622
-270 -114 -40 -123 -45 -124 -69 0 -14 -2 -198 -4 -408 l-4 -383 1144 0 c629
0 1146 3 1148 8 3 4 8 30 11 57 13 102 18 132 42 220 89 333 286 606 574 797
127 84 352 179 460 194 14 2 41 6 60 8 162 25 1161 26 1231 2 8 -3 28 -7 44
-9 86 -13 244 -66 350 -119 218 -109 394 -268 532 -480 88 -134 159 -298 188
-433 13 -60 16 -74 21 -123 3 -28 7 -60 9 -70 2 -9 4 -25 4 -34 1 -17 56 -18
1014 -18 l1012 0 -1 390 c-1 443 10 390 -94 447 -119 65 -159 88 -258 150
-185 116 -374 253 -513 373 -70 59 -253 241 -309 305 -234 270 -396 606 -456
945 -29 167 -33 227 -34 465 -1 344 15 513 64 700 79 301 251 591 491 829 64
63 177 162 271 235 38 30 214 146 294 193 184 109 491 254 714 337 371 138
780 257 1226 355 63 14 126 27 140 30 27 5 365 70 445 86 28 5 86 15 130 22
l81 12 1 245 c1 135 3 452 4 703 2 251 0 461 -5 465 -9 9 -9666 11 -9671 2z
m-4663 -990 c63 -37 193 -108 348 -190 96 -50 377 -181 500 -234 36 -15 83
-35 105 -45 165 -75 631 -236 872 -301 215 -57 531 -130 668 -153 17 -3 73
-12 125 -21 121 -21 138 -23 180 -29 83 -12 108 -15 155 -21 28 -3 64 -8 80
-10 50 -6 126 -13 305 -30 87 -7 177 -14 290 -20 351 -20 378 -26 449 -91 69
-62 94 -115 95 -198 0 -112 -42 -174 -158 -233 -60 -31 -128 -32 -376 -9 -41
4 -86 9 -100 11 -14 2 -56 7 -95 10 -38 4 -72 8 -75 10 -3 1 -34 6 -70 10 -36
3 -90 10 -120 15 -280 47 -358 60 -375 64 -11 3 -63 14 -115 25 -194 41 -358
83 -540 137 -98 30 -316 102 -345 115 -11 4 -58 23 -105 40 -168 63 -436 187
-615 284 -174 94 -448 268 -588 373 -59 45 -269 218 -317 262 -236 217 -300
277 -300 284 0 8 64 -21 122 -55z"/>
</g>
</svg>
